<?xml version="1.0" encoding="UTF-8" standalone="no" ?>
<!DOCTYPE svg PUBLIC "-//W3C//DTD SVG 1.1//EN" "http://www.w3.org/Graphics/SVG/1.1/DTD/svg11.dtd">
<svg xmlns="http://www.w3.org/2000/svg" xmlns:xlink="http://www.w3.org/1999/xlink" version="1.1" width="478" height="250" viewBox="0 0 478 250" xml:space="preserve">
<desc>Created with Fabric.js 5.3.0</desc>
<defs>
</defs>
<g transform="matrix(0.4964911616 0 0 0.4324713315 275 125)" id="O8LS668r9racfIA3jmvA9"  >
<path style="stroke: rgb(18,148,144); stroke-width: 2; stroke-dasharray: none; stroke-linecap: butt; stroke-dashoffset: 0; stroke-linejoin: miter; stroke-miterlimit: 4; fill: rgb(0,0,0); fill-rule: nonzero; opacity: 1;" vector-effect="non-scaling-stroke"  transform=" translate(-546.113, -328.9635)" d="M -7.774 618 L -5.976 613.452 L -4.98 610.891 L -3.984 608.305 L -2.988 605.695 L -1.992 603.063 L -0.996 600.412 L 0 597.743 L 0.995 595.058 L 1.991 592.361 L 2.987 589.653 L 3.983 586.936 L 4.979 584.214 L 5.975 581.487 L 6.971 578.758 L 7.967 576.031 L 8.963 573.306 L 9.959 570.586 L 10.955 567.874 L 11.951 565.172 L 12.947 562.482 L 13.943 559.807 L 14.939 557.148 L 15.935 554.508 L 16.931 551.89 L 17.927 549.294 L 18.923 546.725 L 19.919 544.183 L 20.915 541.671 L 21.911 539.19 L 22.907 536.744 L 23.903 534.334 L 24.899 531.961 L 25.895 529.628 L 26.891 527.337 L 27.887 525.09 L 28.883 522.887 L 29.879 520.732 L 30.875 518.625 L 31.871 516.568 L 32.867 514.563 L 33.863 512.611 L 34.859 510.713 L 35.855 508.871 L 36.851 507.087 L 37.847 505.36 L 38.843 503.693 L 39.839 502.087 L 40.835 500.542 L 41.831 499.059 L 42.827 497.639 L 43.823 496.283 L 44.819 494.991 L 45.815 493.765 L 46.811 492.604 L 47.807 491.509 L 48.803 490.48 L 49.799 489.517 L 50.795 488.621 L 51.791 487.792 L 52.787 487.03 L 53.783 486.334 L 54.779 485.704 L 55.775 485.141 L 56.771 484.643 L 57.767 484.211 L 58.763 483.844 L 59.759 483.541 L 60.755 483.301 L 61.751 483.124 L 62.747 483.01 L 63.743 482.956 L 64.739 482.962 L 65.735 483.028 L 66.731 483.151 L 67.727 483.331 L 68.723 483.567 L 69.719 483.856 L 70.715 484.198 L 71.711 484.592 L 72.707 485.034 L 73.703 485.525 L 74.699 486.062 L 75.695 486.644 L 76.691 487.269 L 77.687 487.934 L 78.683 488.639 L 79.679 489.38 L 80.675 490.157 L 81.671 490.967 L 82.667 491.808 L 83.663 492.678 L 84.659 493.575 L 85.655 494.497 L 86.651 495.441 L 87.647 496.405 L 88.643 497.387 L 89.639 498.385 L 90.635 499.396 L 91.631 500.418 L 92.627 501.449 L 93.623 502.487 L 94.619 503.528 L 95.615 504.572 L 96.611 505.614 L 97.607 506.654 L 98.603 507.689 L 99.599 508.716 L 100.595 509.733 L 101.591 510.738 L 102.587 511.728 L 103.583 512.702 L 104.579 513.657 L 105.575 514.59 L 106.571 515.501 L 107.567 516.385 L 108.563 517.243 L 109.559 518.07 L 110.555 518.866 L 111.551 519.628 L 112.547 520.354 L 113.543 521.043 L 114.539 521.693 L 115.535 522.301 L 116.531 522.866 L 117.527 523.387 L 118.523 523.861 L 119.519 524.288 L 120.515 524.665 L 121.511 524.992 L 122.507 525.267 L 123.503 525.488 L 124.499 525.654 L 125.495 525.765 L 126.491 525.819 L 127.487 525.815 L 128.483 525.752 L 129.479 525.63 L 130.475 525.447 L 131.471 525.203 L 132.467 524.898 L 133.463 524.53 L 134.459 524.1 L 135.455 523.606 L 136.451 523.05 L 137.447 522.429 L 138.443 521.746 L 139.439 520.998 L 140.435 520.187 L 141.431 519.312 L 142.427 518.375 L 143.423 517.374 L 144.419 516.311 L 145.415 515.186 L 146.411 513.999 L 147.407 512.751 L 148.403 511.443 L 149.399 510.076 L 150.395 508.651 L 151.391 507.168 L 152.387 505.628 L 153.383 504.033 L 154.379 502.384 L 155.375 500.681 L 156.371 498.927 L 157.367 497.123 L 158.363 495.27 L 159.359 493.37 L 160.355 491.424 L 161.351 489.434 L 162.347 487.401 L 163.343 485.328 L 164.339 483.216 L 165.335 481.067 L 166.331 478.883 L 167.327 476.666 L 168.323 474.418 L 169.319 472.141 L 170.315 469.836 L 171.311 467.507 L 172.307 465.155 L 173.303 462.783 L 174.299 460.392 L 175.295 457.986 L 176.291 455.565 L 177.287 453.133 L 178.283 450.691 L 179.279 448.243 L 180.275 445.79 L 181.271 443.335 L 182.267 440.879 L 183.263 438.426 L 184.259 435.978 L 185.255 433.537 L 186.251 431.105 L 187.247 428.684 L 188.243 426.278 L 189.239 423.887 L 190.235 421.515 L 191.231 419.164 L 192.227 416.836 L 193.223 414.532 L 194.219 412.256 L 195.215 410.009 L 196.211 407.793 L 197.207 405.611 L 198.203 403.464 L 199.199 401.355 L 200.195 399.284 L 201.191 397.255 L 202.187 395.269 L 203.183 393.327 L 204.179 391.432 L 205.175 389.585 L 206.171 387.787 L 207.167 386.04 L 208.163 384.345 L 209.159 382.705 L 210.155 381.119 L 211.151 379.59 L 212.147 378.119 L 213.143 376.706 L 214.139 375.352 L 215.135 374.06 L 216.131 372.828 L 217.127 371.659 L 218.123 370.553 L 219.119 369.51 L 220.115 368.532 L 221.111 367.618 L 222.107 366.769 L 223.103 365.985 L 224.099 365.266 L 225.095 364.613 L 226.091 364.026 L 227.087 363.504 L 228.083 363.048 L 229.079 362.656 L 230.075 362.33 L 231.071 362.068 L 232.067 361.87 L 233.063 361.736 L 234.059 361.665 L 235.055 361.656 L 236.051 361.708 L 237.047 361.821 L 238.043 361.994 L 239.039 362.225 L 240.035 362.513 L 241.031 362.859 L 242.027 363.259 L 243.023 363.713 L 244.019 364.219 L 245.015 364.776 L 246.011 365.383 L 247.007 366.038 L 248.003 366.739 L 248.999 367.485 L 249.995 368.273 L 250.991 369.103 L 251.987 369.972 L 252.983 370.878 L 253.979 371.819 L 254.975 372.794 L 255.971 373.8 L 256.967 374.836 L 257.963 375.898 L 258.959 376.986 L 259.955 378.096 L 260.951 379.227 L 261.947 380.376 L 262.943 381.541 L 263.939 382.72 L 264.935 383.911 L 265.931 385.11 L 266.927 386.317 L 267.923 387.528 L 268.919 388.742 L 269.915 389.955 L 270.911 391.166 L 271.907 392.372 L 272.903 393.571 L 273.899 394.761 L 274.895 395.938 L 275.891 397.102 L 276.887 398.25 L 277.883 399.379 L 278.879 400.488 L 279.875 401.573 L 280.871 402.634 L 281.867 403.667 L 282.863 404.671 L 283.859 405.644 L 284.855 406.583 L 285.851 407.487 L 286.847 408.354 L 287.843 409.182 L 288.839 409.968 L 289.835 410.713 L 290.831 411.412 L 291.827 412.066 L 292.823 412.672 L 293.819 413.229 L 294.815 413.735 L 295.811 414.19 L 296.807 414.591 L 297.803 414.937 L 298.799 415.228 L 299.795 415.461 L 300.791 415.637 L 301.787 415.754 L 302.783 415.811 L 303.779 415.807 L 304.775 415.742 L 305.771 415.615 L 306.767 415.426 L 307.763 415.174 L 308.759 414.858 L 309.755 414.478 L 310.751 414.035 L 311.747 413.527 L 312.743 412.955 L 313.739 412.319 L 314.735 411.619 L 315.731 410.854 L 316.727 410.027 L 317.723 409.136 L 318.719 408.182 L 319.715 407.165 L 320.711 406.087 L 321.707 404.948 L 322.703 403.749 L 323.699 402.49 L 324.695 401.173 L 325.691 399.798 L 326.687 398.366 L 327.683 396.879 L 328.679 395.338 L 329.675 393.744 L 330.671 392.099 L 331.667 390.403 L 332.663 388.659 L 333.659 386.868 L 334.655 385.031 L 335.651 383.15 L 336.647 381.228 L 337.643 379.265 L 338.639 377.263 L 339.635 375.226 L 340.631 373.153 L 341.627 371.048 L 342.623 368.912 L 343.619 366.748 L 344.615 364.557 L 345.611 362.342 L 346.607 360.105 L 347.603 357.848 L 348.599 355.573 L 349.595 353.282 L 350.591 350.979 L 351.587 348.664 L 352.583 346.341 L 353.579 344.011 L 354.575 341.678 L 355.571 339.343 L 356.567 337.008 L 357.563 334.677 L 358.559 332.351 L 359.555 330.032 L 360.551 327.724 L 361.547 325.427 L 362.543 323.146 L 363.539 320.881 L 364.535 318.635 L 365.531 316.41 L 366.527 314.209 L 367.523 312.034 L 368.519 309.886 L 369.515 307.768 L 370.511 305.682 L 371.507 303.63 L 372.503 301.614 L 373.499 299.636 L 374.495 297.697 L 375.491 295.8 L 376.487 293.946 L 377.483 292.138 L 378.479 290.376 L 379.475 288.662 L 380.471 286.998 L 381.467 285.386 L 382.463 283.826 L 383.459 282.321 L 384.455 280.87 L 385.451 279.477 L 386.447 278.141 L 387.443 276.864 L 388.439 275.646 L 389.435 274.489 L 390.431 273.394 L 391.427 272.36 L 392.423 271.39 L 393.419 270.483 L 394.415 269.64 L 395.411 268.861 L 396.407 268.148 L 397.403 267.499 L 398.399 266.915 L 399.395 266.396 L 400.391 265.943 L 401.387 265.555 L 402.383 265.232 L 403.379 264.973 L 404.375 264.779 L 405.371 264.649 L 406.367 264.583 L 407.363 264.579 L 408.359 264.638 L 409.355 264.758 L 410.351 264.939 L 411.347 265.18 L 412.343 265.48 L 413.339 265.837 L 414.335 266.252 L 415.331 266.721 L 416.327 267.245 L 417.323 267.822 L 418.319 268.45 L 419.315 269.128 L 420.311 269.855 L 421.307 270.628 L 422.303 271.447 L 423.299 272.309 L 424.295 273.213 L 425.291 274.157 L 426.287 275.139 L 427.283 276.157 L 428.279 277.209 L 429.275 278.293 L 430.271 279.408 L 431.267 280.55 L 432.263 281.718 L 433.259 282.91 L 434.255 284.123 L 435.251 285.355 L 436.247 286.605 L 437.243 287.869 L 438.239 289.146 L 439.235 290.433 L 440.231 291.728 L 441.227 293.028 L 442.223 294.332 L 443.219 295.636 L 444.215 296.939 L 445.211 298.238 L 446.207 299.531 L 447.203 300.816 L 448.199 302.089 L 449.195 303.35 L 450.191 304.596 L 451.187 305.824 L 452.183 307.032 L 453.179 308.218 L 454.175 309.38 L 455.171 310.516 L 456.167 311.623 L 457.163 312.7 L 458.159 313.744 L 459.155 314.754 L 460.151 315.727 L 461.147 316.662 L 462.143 317.556 L 463.139 318.409 L 464.135 319.218 L 465.131 319.982 L 466.127 320.698 L 467.123 321.366 L 468.119 321.984 L 469.115 322.551 L 470.111 323.064 L 471.107 323.524 L 472.103 323.928 L 473.099 324.275 L 474.095 324.565 L 475.091 324.796 L 476.087 324.968 L 477.083 325.079 L 478.079 325.129 L 479.075 325.117 L 480.071 325.043 L 481.067 324.905 L 482.063 324.705 L 483.059 324.44 L 484.055 324.111 L 485.051 323.719 L 486.047 323.261 L 487.043 322.74 L 488.039 322.153 L 489.035 321.503 L 490.031 320.789 L 491.027 320.011 L 492.023 319.169 L 493.019 318.265 L 494.015 317.299 L 495.011 316.27 L 496.007 315.181 L 497.003 314.032 L 497.999 312.824 L 498.995 311.557 L 499.991 310.233 L 500.987 308.852 L 501.983 307.417 L 502.979 305.928 L 503.975 304.386 L 504.971 302.794 L 505.967 301.151 L 506.963 299.461 L 507.959 297.724 L 508.955 295.942 L 509.951 294.117 L 510.947 292.251 L 511.943 290.345 L 512.939 288.401 L 513.935 286.422 L 514.931 284.408 L 515.927 282.363 L 516.923 280.288 L 517.919 278.184 L 518.915 276.056 L 519.911 273.904 L 520.907 271.73 L 521.903 269.538 L 522.899 267.328 L 523.895 265.104 L 524.891 262.868 L 525.887 260.621 L 526.883 258.367 L 527.879 256.107 L 528.875 253.845 L 529.871 251.581 L 530.867 249.319 L 531.863 247.062 L 532.859 244.81 L 533.855 242.567 L 534.851 240.334 L 535.847 238.115 L 536.843 235.912 L 537.839 233.726 L 538.835 231.559 L 539.831 229.416 L 540.827 227.296 L 541.823 225.203 L 542.819 223.138 L 543.815 221.104 L 544.811 219.103 L 545.807 217.136 L 546.803 215.206 L 547.799 213.315 L 548.795 211.464 L 549.791 209.655 L 550.787 207.891 L 551.783 206.171 L 552.779 204.5 L 553.775 202.877 L 554.771 201.304 L 555.767 199.784 L 556.763 198.316 L 557.759 196.903 L 558.755 195.546 L 559.751 194.246 L 560.747 193.003 L 561.743 191.82 L 562.739 190.697 L 563.735 189.635 L 564.731 188.634 L 565.727 187.696 L 566.723 186.821 L 567.719 186.009 L 568.715 185.261 L 569.711 184.578 L 570.707 183.959 L 571.703 183.406 L 572.699 182.917 L 573.695 182.493 L 574.691 182.135 L 575.687 181.841 L 576.683 181.612 L 577.679 181.448 L 578.675 181.348 L 579.671 181.311 L 580.667 181.338 L 581.663 181.426 L 582.659 181.577 L 583.655 181.789 L 584.651 182.061 L 585.647 182.392 L 586.643 182.781 L 587.639 183.228 L 588.635 183.73 L 589.631 184.288 L 590.627 184.898 L 591.623 185.561 L 592.619 186.275 L 593.615 187.037 L 594.611 187.847 L 595.607 188.704 L 596.603 189.604 L 597.599 190.547 L 598.595 191.531 L 599.591 192.553 L 600.587 193.613 L 601.583 194.708 L 602.579 195.835 L 603.575 196.994 L 604.571 198.182 L 605.567 199.397 L 606.563 200.636 L 607.559 201.898 L 608.555 203.18 L 609.551 204.48 L 610.547 205.796 L 611.543 207.126 L 612.539 208.466 L 613.535 209.816 L 614.531 211.173 L 615.527 212.533 L 616.523 213.896 L 617.519 215.259 L 618.515 216.618 L 619.511 217.973 L 620.507 219.32 L 621.503 220.658 L 622.499 221.984 L 623.495 223.296 L 624.491 224.591 L 625.487 225.867 L 626.483 227.122 L 627.479 228.355 L 628.475 229.562 L 629.471 230.741 L 630.467 231.891 L 631.463 233.01 L 632.459 234.095 L 633.455 235.144 L 634.451 236.156 L 635.447 237.129 L 636.443 238.06 L 637.439 238.949 L 638.435 239.793 L 639.431 240.59 L 640.427 241.34 L 641.423 242.04 L 642.419 242.69 L 643.415 243.287 L 644.411 243.83 L 645.407 244.319 L 646.403 244.752 L 647.399 245.127 L 648.395 245.444 L 649.391 245.702 L 650.387 245.9 L 651.383 246.037 L 652.379 246.113 L 653.375 246.126 L 654.371 246.076 L 655.367 245.963 L 656.363 245.787 L 657.359 245.546 L 658.355 245.241 L 659.351 244.871 L 660.347 244.437 L 661.343 243.939 L 662.339 243.376 L 663.335 242.749 L 664.331 242.057 L 665.327 241.302 L 666.323 240.484 L 667.319 239.604 L 668.315 238.661 L 669.311 237.656 L 670.307 236.591 L 671.303 235.467 L 672.299 234.283 L 673.295 233.041 L 674.291 231.742 L 675.287 230.388 L 676.283 228.979 L 677.279 227.517 L 678.275 226.003 L 679.271 224.438 L 680.267 222.824 L 681.263 221.163 L 682.259 219.456 L 683.255 217.705 L 684.251 215.911 L 685.247 214.077 L 686.243 212.204 L 687.239 210.294 L 688.235 208.348 L 689.231 206.37 L 690.227 204.361 L 691.223 202.322 L 692.219 200.257 L 693.215 198.167 L 694.211 196.055 L 695.207 193.922 L 696.203 191.77 L 697.199 189.603 L 698.195 187.423 L 699.191 185.231 L 700.187 183.03 L 701.183 180.822 L 702.179 178.61 L 703.175 176.395 L 704.171 174.181 L 705.167 171.97 L 706.163 169.763 L 707.159 167.564 L 708.155 165.374 L 709.151 163.196 L 710.147 161.032 L 711.143 158.885 L 712.139 156.756 L 713.135 154.648 L 714.131 152.563 L 715.127 150.503 L 716.123 148.471 L 717.119 146.468 L 718.115 144.497 L 719.111 142.559 L 720.107 140.656 L 721.103 138.792 L 722.099 136.966 L 723.095 135.182 L 724.091 133.441 L 725.087 131.744 L 726.083 130.094 L 727.079 128.491 L 728.075 126.938 L 729.071 125.436 L 730.067 123.987 L 731.063 122.591 L 732.059 121.251 L 733.055 119.966 L 734.051 118.739 L 735.047 117.57 L 736.043 116.461 L 737.039 115.412 L 738.035 114.424 L 739.031 113.499 L 740.027 112.635 L 741.023 111.835 L 742.019 111.099 L 743.015 110.427 L 744.011 109.819 L 745.007 109.276 L 746.003 108.798 L 746.999 108.384 L 747.995 108.036 L 748.991 107.753 L 749.987 107.534 L 750.983 107.381 L 751.979 107.291 L 752.975 107.265 L 753.971 107.302 L 754.967 107.403 L 755.963 107.565 L 756.959 107.788 L 757.955 108.073 L 758.951 108.416 L 759.947 108.819 L 760.943 109.279 L 761.939 109.796 L 762.935 110.368 L 763.931 110.994 L 764.927 111.673 L 765.923 112.403 L 766.919 113.183 L 767.915 114.011 L 768.911 114.887 L 769.907 115.807 L 770.903 116.771 L 771.899 117.776 L 772.895 118.821 L 773.891 119.904 L 774.887 121.024 L 775.883 122.177 L 776.879 123.362 L 777.875 124.577 L 778.871 125.82 L 779.867 127.089 L 780.863 128.382 L 781.859 129.696 L 782.855 131.029 L 783.851 132.379 L 784.847 133.744 L 785.843 135.121 L 786.839 136.508 L 787.835 137.903 L 788.831 139.304 L 789.827 140.708 L 790.823 142.112 L 791.819 143.515 L 792.815 144.914 L 793.811 146.308 L 794.807 147.692 L 795.803 149.066 L 796.799 150.427 L 797.795 151.772 L 798.791 153.1 L 799.787 154.408 L 800.783 155.694 L 801.779 156.955 L 802.775 158.191 L 803.771 159.397 L 804.767 160.574 L 805.763 161.717 L 806.759 162.827 L 807.755 163.899 L 808.751 164.933 L 809.747 165.927 L 810.743 166.879 L 811.739 167.787 L 812.735 168.65 L 813.731 169.466 L 814.727 170.232 L 815.723 170.949 L 816.719 171.614 L 817.715 172.226 L 818.711 172.784 L 819.707 173.286 L 820.703 173.732 L 821.699 174.12 L 822.695 174.449 L 823.691 174.719 L 824.687 174.928 L 825.683 175.076 L 826.679 175.161 L 827.675 175.184 L 828.671 175.144 L 829.667 175.041 L 830.663 174.873 L 831.659 174.641 L 832.655 174.345 L 833.651 173.984 L 834.647 173.559 L 835.643 173.069 L 836.639 172.514 L 837.635 171.896 L 838.631 171.213 L 839.627 170.467 L 840.623 169.658 L 841.619 168.786 L 842.615 167.853 L 843.611 166.858 L 844.607 165.803 L 845.603 164.689 L 846.599 163.516 L 847.595 162.285 L 848.591 160.998 L 849.587 159.656 L 850.583 158.26 L 851.579 156.811 L 852.575 155.311 L 853.571 153.76 L 854.567 152.162 L 855.563 150.516 L 856.559 148.826 L 857.555 147.092 L 858.551 145.316 L 859.547 143.501 L 860.543 141.647 L 861.539 139.757 L 862.535 137.833 L 863.531 135.877 L 864.527 133.891 L 865.523 131.877 L 866.519 129.836 L 867.515 127.772 L 868.511 125.687 L 869.507 123.581 L 870.503 121.459 L 871.499 119.322 L 872.495 117.172 L 873.491 115.012 L 874.487 112.844 L 875.483 110.67 L 876.479 108.493 L 877.475 106.314 L 878.471 104.137 L 879.467 101.964 L 880.463 99.796 L 881.459 97.637 L 882.455 95.488 L 883.451 93.352 L 884.447 91.231 L 885.443 89.128 L 886.439 87.044 L 887.435 84.982 L 888.431 82.944 L 889.427 80.932 L 890.423 78.949 L 891.419 76.996 L 892.415 75.075 L 893.411 73.189 L 894.407 71.339 L 895.403 69.528 L 896.399 67.756 L 897.395 66.027 L 898.391 64.341 L 899.387 62.701 L 900.383 61.108 L 901.379 59.563 L 902.375 58.068 L 903.371 56.626 L 904.367 55.236 L 905.363 53.9 L 906.359 52.62 L 907.355 51.397 L 908.351 50.231 L 909.347 49.124 L 910.343 48.078 L 911.339 47.091 L 912.335 46.167 L 913.331 45.304 L 914.327 44.505 L 915.323 43.768 L 916.319 43.096 L 917.315 42.487 L 918.311 41.944 L 919.307 41.465 L 920.303 41.051 L 921.299 40.702 L 922.295 40.418 L 923.291 40.198 L 924.287 40.044 L 925.283 39.953 L 926.279 39.927 L 927.275 39.964 L 928.271 40.064 L 929.267 40.227 L 930.263 40.451 L 931.259 40.736 L 932.255 41.082 L 933.251 41.486 L 934.247 41.949 L 935.243 42.469 L 936.239 43.044 L 937.235 43.675 L 938.231 44.359 L 939.227 45.095 L 940.223 45.881 L 941.219 46.717 L 942.215 47.6 L 943.211 48.529 L 944.207 49.502 L 945.203 50.518 L 946.199 51.575 L 947.195 52.671 L 948.191 53.803 L 949.187 54.971 L 950.183 56.172 L 951.179 57.404 L 952.175 58.664 L 953.171 59.952 L 954.167 61.264 L 955.163 62.599 L 956.159 63.954 L 957.155 65.328 L 958.151 66.717 L 959.147 68.12 L 960.143 69.534 L 961.139 70.957 L 962.135 72.387 L 963.131 73.821 L 964.127 75.257 L 965.123 76.693 L 966.119 78.126 L 967.115 79.554 L 968.111 80.975 L 969.107 82.386 L 970.103 83.786 L 971.098 85.171 L 972.094 86.54 L 973.09 87.89 L 974.086 89.219 L 975.082 90.525 L 976.078 91.806 L 980 100 L 1100 618" stroke-linecap="round" />
</g>
</svg>